<?xml version="1.0" encoding="UTF-8" standalone="no"?>
<!-- Created with Inkscape (http://www.inkscape.org/) -->

<svg
   version="1.1"
   id="svg2"
   width="312.69312"
   height="159.00385"
   viewBox="0 0 312.69312 159.00385"
   xmlns="http://www.w3.org/2000/svg"
   xmlns:svg="http://www.w3.org/2000/svg">
  <defs
     id="defs6">
    <clipPath
       clipPathUnits="userSpaceOnUse"
       id="clipPath400">
      <path
         d="M 0,500 H 500 V 0 H 0 Z"
         id="path398" />
    </clipPath>
  </defs>
  <g
     id="g10"
     transform="matrix(1.3333333,0,0,-1.3333333,-315.81616,433.49739)">
    <g
       id="g394">
      <g
         id="g396"
         clip-path="url(#clipPath400)">
        <g
           id="g620"
           transform="translate(-3.8196233,2.6391478)">
          <g
             id="g402"
             transform="translate(240.6934,249.1353)">
            <path
               d="m 0,0 c 0.03,-0.854 0.093,-1.741 0.209,-2.643 0.375,-2.954 5.036,-9.183 15.821,-13.352 12.949,-5.001 29.001,-7.095 40.064,1.285 -0.84,-7.217 7.238,-11.877 13.987,-14.526 7.188,-2.799 14.521,-5.634 22.214,-5.966 7.695,-0.322 15.957,2.3 20.456,8.548 6.337,-11.041 22.493,-14.933 33.154,-7.997 6.535,-9.366 19.541,-13.627 30.346,-9.923 10.801,3.687 18.48,15.018 17.909,26.426 6.004,-3.281 14.636,2.34 14.062,9.169 5.877,-5.348 16.026,-4.1 21.407,1.745 5.372,5.846 6.157,15.023 3.097,22.351 -2.064,4.929 -5.63,9.063 -9.901,12.316 0.151,1.811 0.005,3.652 -0.429,5.418 -0.438,1.748 -1.167,3.412 -2.189,4.899 -3.995,5.805 -12.145,8.317 -18.723,5.794 2.645,8.236 -3.859,18.057 -12.466,18.842 -8.33,0.76 -16.23,-7.151 -15.732,-15.438 -0.407,3.79 -3.508,6.686 -6.639,8.923 -7.33,5.236 -13.525,0.468 -14.954,-0.103 -2.103,10.18 -11.712,17.977 -25.799,17.565 C 111.816,72.93 102.877,63.594 102.221,54.335 98.859,59.124 91.565,60.6 86.604,57.495 81.66,54.378 79.804,47.171 82.665,42.064 74.294,50.014 61.263,52.643 50.467,48.564 39.661,44.486 31.629,33.892 30.609,22.391 20.939,25.36 -0.584,19.473 0,0"
               style="fill:#ffffff;fill-opacity:1;fill-rule:nonzero;stroke:none"
               id="path404" />
          </g>
          <g
             id="g410"
             transform="translate(473.4189,264.2524)">
            <path
               d="m 0,0 c -2.063,4.929 -5.63,9.063 -9.9,12.315 -6.006,4.093 -11.384,3.562 -15.936,0.987 13.617,-5.478 11.389,-20.355 11.389,-20.355 -3.778,11.039 -9.699,14.318 -14.904,15.976 -5.67,1.807 -11.553,0.313 -14.944,-3.376 -2.518,-2.74 -2.823,-7.047 -1.737,-10.648 -9.471,10.087 -19.468,10.624 -23.735,7.685 9.483,-2.063 11.709,-10.887 11.709,-10.887 -24.515,11.973 -38.28,-0.324 -38.28,-0.324 0,0 0.916,12.146 17.566,12.651 -0.908,8.63 -6.865,17.922 -17.008,18.553 -12.524,0.77 -22.865,-8.154 -22.367,-21.537 -4.478,0.999 -9.125,-3.875 -7.923,-8.301 -3.103,2.448 -6.399,4.995 -10.307,5.631 -3.908,0.627 -8.544,-1.409 -9.353,-5.284 -5.472,-0.544 -9.961,-6 -9.426,-11.47 -7.392,7.002 -19.482,8.453 -28.322,3.392 4.262,12.791 20.677,19.863 32.913,14.188 -0.284,9.007 -9.193,16.774 -18.155,15.831 -8.953,-0.954 -16.046,-10.427 -14.426,-19.289 -6.419,2.017 -13.743,-4.828 -12.15,-11.369 -2.537,8.38 -12.181,10.457 -17.855,8.918 7.98,-2.103 11.208,-11.816 10.192,-18.608 -2.595,6.157 -10.591,18.876 -29.767,10.204 0.03,-0.854 0.093,-1.741 0.21,-2.643 0.375,-2.954 5.036,-9.183 15.821,-13.352 12.948,-5.001 29.001,-7.096 40.063,1.284 -0.84,-7.216 7.238,-11.877 13.987,-14.525 7.188,-2.799 14.521,-5.634 22.214,-5.966 7.696,-0.322 15.957,2.3 20.456,8.548 6.337,-11.041 22.494,-14.934 33.155,-7.997 6.535,-9.366 19.541,-13.627 30.345,-9.923 10.801,3.687 18.481,15.018 17.91,26.426 6.003,-3.281 14.635,2.34 14.061,9.169 5.877,-5.348 16.026,-4.1 21.407,1.745 C 2.275,-16.505 3.061,-7.329 0,0"
               style="fill:#cce1f4;fill-opacity:1;fill-rule:nonzero;stroke:none"
               id="path412" />
          </g>
        </g>
      </g>
    </g>
  </g>
</svg>
