<?xml version="1.0" encoding="UTF-8" standalone="no"?>
<!-- Created with Inkscape (http://www.inkscape.org/) -->

<svg
   version="1.1"
   id="svg2"
   width="239.1301"
   height="93.921371"
   viewBox="0 0 239.1301 93.921372"
   xmlns="http://www.w3.org/2000/svg"
   xmlns:svg="http://www.w3.org/2000/svg">
  <defs
     id="defs6">
    <clipPath
       clipPathUnits="userSpaceOnUse"
       id="clipPath400">
      <path
         d="M 0,500 H 500 V 0 H 0 Z"
         id="path398" />
    </clipPath>
  </defs>
  <g
     id="g10"
     transform="matrix(1.3333333,0,0,-1.3333333,-44.392856,609.30245)">
    <g
       id="g394">
      <g
         id="g396"
         clip-path="url(#clipPath400)">
        <g
           id="g1576">
          <g
             id="g450"
             transform="translate(212.375,422.375)">
            <path
               d="m 0,0 c -0.126,-0.211 -0.287,-0.422 -0.499,-0.617 -9.062,-8.547 -46.196,-6.064 -46.196,-6.064 0,0 1.233,-7.584 -5.262,-8.47 -4.333,-0.592 -7.905,2.803 -7.905,2.803 0,0 -6.25,-11.342 -17.305,-12.744 -8.614,-1.09 -13.454,5.017 -13.454,5.017 0,0 -1.401,-16.292 -23.985,-15.751 -9.848,0.244 -15.616,3.91 -18.994,7.972 -3.091,-2.364 -7.077,-3.817 -11.79,-2.026 -4.518,1.722 -6.858,4.856 -8.074,7.753 -6.773,-1.099 -14.594,-0.44 -20.692,5.582 -5.565,5.481 -5.962,13.031 -3.428,19.459 1.773,4.535 5.016,8.504 8.918,10.793 10.768,6.309 22.583,3.876 25.312,-1.106 1.156,6.3 7.322,6.832 9.475,4.974 0.414,8.2 6.968,15.455 18.023,16.832 11.038,1.385 19.138,-4.823 20.776,-11.976 2.044,4.147 7.559,6.182 11.807,4.358 4.231,-1.841 6.554,-7.238 4.94,-11.57 5.575,7.212 15.431,10.843 24.349,8.96 8.927,-1.883 16.477,-9.18 18.665,-18.039 C -21.097,15.193 3.074,5.371 0,0"
               style="fill:#ffffff;fill-opacity:1;fill-rule:nonzero;stroke:none"
               id="path452" />
          </g>
          <g
             id="g454"
             transform="translate(212.375,422.375)">
            <path
               d="m 0,0 c -0.126,-0.211 -0.287,-0.422 -0.499,-0.617 -9.062,-8.547 -46.196,-6.064 -46.196,-6.064 0,0 1.233,-7.584 -5.262,-8.47 -4.333,-0.592 -7.905,2.803 -7.905,2.803 0,0 -6.25,-11.342 -17.305,-12.744 -8.614,-1.09 -13.454,5.017 -13.454,5.017 0,0 -1.401,-16.292 -23.985,-15.751 -9.848,0.244 -15.616,3.91 -18.994,7.972 -3.091,-2.364 -7.077,-3.817 -11.79,-2.026 -4.518,1.722 -6.858,4.856 -8.074,7.753 -6.773,-1.099 -14.594,-0.44 -20.692,5.582 -5.565,5.481 -5.962,13.031 -3.428,19.459 8.901,-2.196 13.04,-12.027 13.952,-13.159 -2.475,9.231 6.198,19.594 15.734,18.775 8.859,-0.76 17.389,-6.503 19.188,-17.821 -8.851,-0.726 -17.263,-3.707 -19.619,-11.207 6.216,6.74 18.183,10.059 24.391,3.303 -0.093,3.319 2.753,19.728 13.217,24.872 10.472,5.143 25.97,0 29.34,-7.162 3.471,10.168 22.524,8.825 28.14,3.631 -5.692,-1.579 -10.768,-5.219 -14.095,-10.083 5.177,4.062 8.285,3.91 14.163,0.929 2.82,9.036 11.883,7.043 16.232,4.391 6.115,6.782 17.854,4.865 22.347,3.851 C -12.12,2.677 -5.954,1.064 0,0"
               style="fill:#cce1f4;fill-opacity:1;fill-rule:nonzero;stroke:none"
               id="path456" />
          </g>
        </g>
      </g>
    </g>
  </g>
</svg>
