<svg width="207" height="93" viewBox="0 0 207 93" fill="none" xmlns="http://www.w3.org/2000/svg">
<g clip-path="url(#clip0_4_7939)">
<mask id="mask0_4_7939" style="mask-type:luminance" maskUnits="userSpaceOnUse" x="95" y="-138" width="499" height="497">
<path d="M95.5992 -137.367H593.194V358.939H95.5992V-137.367Z" fill="white"/>
</mask>
<g mask="url(#mask0_4_7939)">
<path d="M306.336 52.8464C307.011 48.3727 306.418 42.2661 303.612 37.3378C303.416 37.0053 303.221 36.6718 303.026 36.3393C299.086 29.7086 290.282 25.5575 280.571 28.0093C278.394 22.9856 273.385 19.4678 267.548 19.4678C265.359 19.4678 263.293 19.9771 261.441 20.8605C253.84 11.4465 237.81 -3.28282 212.793 1.8331C187.868 6.93016 176.316 32.2388 176.316 32.2388C167.661 24.2294 149.694 27.6748 140.934 35.9869C131.707 44.7437 131.875 51.4011 131.875 51.4011C125.769 47.4932 115.937 51.4001 114.265 57.2317C112.936 61.8533 114.752 66.601 119.065 68.8959C119.318 69.018 119.593 69.1371 119.846 69.2592C128.024 73.2803 133.059 71.0519 133.059 71.0519C142.808 92.0148 161.224 86.5674 169.646 82.2962C172.283 80.9581 177.709 78.6434 177.709 78.6434C177.709 78.6434 192.827 92.9638 213.824 93.7569C226.36 94.2413 247.764 87.7387 252.771 76.2532C275.264 89.1601 314.981 79.2737 320.151 66.4134C322.207 61.3054 320.206 49.0625 306.336 52.8464Z" fill="white"/>
<path d="M320.151 66.4138C314.981 79.2741 275.264 89.1605 252.771 76.2535C247.764 87.739 226.361 94.2416 213.824 93.7563C192.828 92.9632 177.709 78.6428 177.709 78.6428C177.709 78.6428 172.283 80.9585 169.646 82.2956C161.225 86.5678 142.808 92.0152 133.059 71.0523C133.059 71.0523 128.023 73.2807 119.847 69.2586C119.594 69.1375 119.318 69.0174 119.064 68.8953C119.996 68.7295 120.914 68.5419 121.794 68.3236C133.843 65.4837 149.967 54.028 160.658 64.7541C160.576 56.3924 152.126 50.6541 144.179 51.6259C147.74 46.5874 154.851 44.4145 160.71 46.5139C166.697 48.6441 170.825 55.0305 170.336 61.3425C177.253 58.0262 183.134 57.2321 190.649 58.5632C198.165 59.9062 203.09 64.5923 206.182 71.5654C203.895 59.2273 197.368 52.2065 184.821 52.9321C184.408 45.8826 185.189 41.0903 189.451 35.4423C193.702 29.7844 201.27 26.3202 208.099 28.1794C214.939 30.0505 219.844 38.0539 217.221 44.6131C218.319 42.9385 222.328 41.9509 224.685 43.55C226.533 44.8036 227.021 48.3324 226.583 49.7875C228.465 44.3321 234.184 40.459 239.964 40.73C245.755 40.999 251.089 45.3883 252.469 50.9906C253.412 40.5364 243.468 30.4961 232.989 31.3011C247.534 23.2531 267.113 28.5328 269.304 45.0548C274.926 26.6081 299.778 30.3274 303.611 37.3382C306.419 42.2655 307.188 49.1552 306.336 52.8468C320.205 49.0629 322.207 61.3058 320.151 66.4138Z" fill="#CCE1F4"/>
</g>
</g>
<defs>
<clipPath id="clip0_4_7939">
<rect width="207" height="93" fill="white"/>
</clipPath>
</defs>
</svg>
